# xmcd CD database file
#
# Track frame offsets:
#	150
#	11979
#	25274
#	36933
#	50490
#	62204
#	75578
#	89477
#	100710
#	114626
#	127082
#	139286
#
# Disc length: 2016 seconds
#
# Revision: 1
# Processed by: cddbd v1.5.2PL0 Copyright (c) Steve Scherf et al.
# Submitted via: CDex 1.70beta2
#
DISCID=a807de0c
DTITLE=Buddy Guy and Otis Rush - Blue on Blues
DYEAR=2002
DGENRE=Blues
TTITLE0=You Sure Can't Do
TTITLE1=This is the End
TTITLE2=Try to Quit You Baby
TTITLE3=Sit and Cry (The Blues)
TTITLE4=You Sure Can't Do (alt)
TTITLE5=This is the End (Alt/Take 3)
TTITLE6=I Can't Quit You Baby
TTITLE7=Keep On Loving Me Baby
TTITLE8=My Love Will Never Die
TTITLE9=It Takes Time
TTITLE10=Double Trouble
TTITLE11=All Your Love (I Miss Loving)
EXTD=YEAR: 2002
EXTT0=
EXTT1=
EXTT2=
EXTT3=
EXTT4=
EXTT5=
EXTT6=
EXTT7=
EXTT8=
EXTT9=
EXTT10=
EXTT11=
PLAYORDER=
